<?xml version="1.0" encoding="utf-8"?>
<!-- Generator: Adobe Illustrator 19.2.1, SVG Export Plug-In . SVG Version: 6.00 Build 0)  -->
<!DOCTYPE svg PUBLIC "-//W3C//DTD SVG 1.1//EN" "http://www.w3.org/Graphics/SVG/1.1/DTD/svg11.dtd">
<svg version="1.1" id="Layer_1" xmlns="http://www.w3.org/2000/svg" xmlns:xlink="http://www.w3.org/1999/xlink" x="0px" y="0px"
	 viewBox="0 0 1068.3 359" style="enable-background:new 0 0 1068.3 359;" xml:space="preserve">
<style type="text/css">
	.st0{fill:#FFFFFF;}
</style>
<title>Blogo_rgb_White_Left</title>
<path class="st0" d="M272.3,103.5c21.1-0.4,32.8-10.7,32.8-29.1c0-19.4-13-32.8-36.2-32.8h-60.4v10.2h14.4v110.4h-14.5v10.1h64
	c24.5,0,38.9-14.7,38.9-35.7C311.4,116,297.3,104.2,272.3,103.5z M246.8,51.7H260c12,0,19.8,11.4,19.8,24.8
	c0,12.8-8.4,23.4-19.4,23.4h-13.5L246.8,51.7L246.8,51.7z M260,162.1h-13.2v-52.4h14c15.2,0,25.3,10.1,25.3,25.5
	C286.1,151.3,277.3,162.1,260,162.1L260,162.1z"/>
<path class="st0" d="M652.7,41.6h-59.4v10.1h14.4v110.4h-14.4v10.1h59.2c18.7,0,32.2-7.6,44.2-19.1c12.8-12.1,20-28.9,20.1-46.5
	C716.7,71.5,688.7,41.6,652.7,41.6z M647.7,162.1h-15.4V51.7h16.2c22.3,0,41.3,27,41.3,55C689.8,136.6,671.7,162.1,647.7,162.1z"/>
<polygon class="st0" points="811,162.1 770.5,162.1 770.5,51.7 784.7,51.7 784.7,41.5 731.4,41.5 731.4,51.7 745.9,51.7 
	745.9,162.1 731.4,162.1 731.4,172.2 821.3,172.2 821.3,144.4 811,144.4 "/>
<polygon class="st0" points="921.6,162.1 880.3,162.1 880.3,111.5 910.8,111.5 910.8,124.8 921,124.6 921,87.1 910.8,87.3 
	910.8,100.2 880.3,100.2 880.3,51.7 919.9,51.7 919.9,69 930,69 930,41.5 841.3,41.5 841.3,51.7 855.8,51.7 855.8,162.1 
	841.3,162.1 841.3,172.2 931.9,172.2 931.9,144.4 921.6,144.4 "/>
<polygon class="st0" points="1024,41.5 1024,51.7 1040.4,51.7 1014.8,93.8 987.5,51.7 1001.9,51.7 1001.9,41.5 948.5,41.5 
	948.5,51.7 960.3,51.7 998.3,109.2 998.3,161.8 984,161.8 984,172.2 1037.3,172.2 1037.3,161.8 1022.8,161.8 1022.8,104.2 
	1054.9,51.7 1068.3,51.7 1068.3,41.5 "/>
<path class="st0" d="M522.6,41.6h-14.7l-47.8,120.6H443c-3.8-0.4-6.1-2.2-10.5-8.9l-26.9-41.5c17.8-5.6,25.4-16.6,25.4-33.7
	c0,0,2.1-36.4-41.7-36.4H335v10.1h14.5v110.4H335v10.1h52.3v-10.1H373v-48.4h7.9l30.6,47.3c6.5,10.1,8.4,11.1,19.6,11.1H488V162
	h-15.4l12.7-32H531l12.4,32H530v10.1h51.5V162h-12.8L522.6,41.6z M384.4,104.2h-11.1V51.7h12c13.5,0,21.3,11,21.3,26.2
	S397.5,104.2,384.4,104.2L384.4,104.2z M489.8,119.3L509,71.7l18.1,47.6C527.1,119.3,489.8,119.3,489.8,119.3z"/>
<path class="st0" d="M309.3,213.5v61.7c0,17.3-6.1,28.5-19.6,35.8c-6.9,3.6-14.7,5.5-22.5,5.5c-23.5,0-40.8-15.6-40.8-36.7v-66.2
	h-12.1v-6h38.5v6h-12.1v61.2c0,19.5,11.5,32.4,29.4,32.4c18.5,0,30.9-13.1,30.9-32.5v-61h-12.1v-6h32.5v6L309.3,213.5L309.3,213.5z"
	/>
<path class="st0" d="M373.7,314.3v-6h12.1v-47.4c0-8.6-4.5-13.9-11.5-13.9s-11,3.1-25.1,19.3v42.1h12.3v6h-36.7v-6h12.3v-58.3H323
	v-4.5l23.3-6.3h2.9v18.3c12.1-14.1,19.1-18.4,29.5-18.4c12,0,19.4,7.8,19.4,20.2v49h12.1v6L373.7,314.3L373.7,314.3L373.7,314.3z"/>
<path class="st0" d="M419.8,314.3v-6h12.3V250H418v-4.5l23.3-6.2h2.9v68.9h12.3v6h-36.7V314.3z M437.4,220.2c-4.7,0-8.4-3.9-8.4-8.6
	s3.9-8.4,8.6-8.4c4.6,0,8.3,3.8,8.4,8.4c0.1,4.6-3.5,8.5-8.2,8.6H437.4L437.4,220.2z"/>
<path class="st0" d="M522.2,247l-26.4,69.4h-3.3l-28.3-69.2l-6.8-0.2v-6h31.4v6h-11.3l19.3,47.7l18-47.7H504v-6h24.9v6L522.2,247
	L522.2,247z"/>
<path class="st0" d="M544.2,272.9v1.8c0,20.2,10.7,34.3,26,34.3c6.5,0,10.8-1.6,19.9-7.4l3.1,6c-12.1,7-17.8,8.9-27.2,8.9
	c-20.5,0-35.1-15.9-35.1-38.2c0-22.7,14.7-39.1,34.8-39.1c17.5,0,29.4,12,29.4,29.4v4.5h-51L544.2,272.9L544.2,272.9z M581.9,262.6
	c0-9.7-6.7-16.7-16-16.7c-11.8,0-20.1,7.9-21.5,20.5h37.5V262.6L581.9,262.6z"/>
<path class="st0" d="M652.4,256.2c-3.2-3-5.5-4.5-7.1-4.5c-2.9,0-5.8,2.8-14.7,13.6v43h15.6v6h-40v-6h12.3V250h-14.1v-4.5l23.3-6.3
	h2.9v18.3c11.6-14.9,15.8-18.4,21.7-18.4c1.6-0.1,3.2,0.4,4.5,1.4l5,4.5L652.4,256.2z"/>
<path class="st0" d="M696.8,316.4c-9.1,0-15.8-2.1-20.5-6.4v5.8h-6.5v-23h7.4v4.5c0,6.9,9,13.1,19.1,13.1c8.9,0,15.6-4.7,15.6-11.1
	s-4.5-10-21.5-16.6c-15.6-6-21-12-21-22.2c0-12.6,10.2-21.2,25.1-21.2c6.2-0.3,12.3,1.7,17.2,5.5l1-5.8h7l-3.9,23.2h-7
	c0.6-1.7,1-3.5,1-5.4c0-6.3-7.3-11.5-16-11.5s-14,4.4-14,11.5c0,7,1.1,7.8,20.7,15.6c15.8,6.3,20.9,11.7,20.9,22
	C721.2,307.4,711.2,316.4,696.8,316.4z"/>
<path class="st0" d="M733.8,314.3v-6h12.3V250H732v-4.5l23.3-6.3h2.9v68.9h12.3v6L733.8,314.3L733.8,314.3z M751.5,220.2
	c-4.7,0-8.4-3.9-8.4-8.6c0-4.7,3.9-8.4,8.6-8.4c4.6,0,8.3,3.8,8.4,8.4c0.1,4.6-3.5,8.5-8.2,8.6H751.5L751.5,220.2z"/>
<path class="st0" d="M868.2,241v6H879l-18,47.8L841.4,247h11.5v-6h-53.5v-21.2h-11.7V241h-14.1v6h14.1v53.1c0,9.9,5.7,15.7,15,15.7
	c6,0,9.2-1.5,17.8-8.3l-2.7-4.5c-5.5,3.2-7.6,3.9-11,3.9c-5.3,0-7.4-2.2-7.4-8.5V247h28.8l26.2,64.2c-2.4,7.1-6,13.8-10.5,19.8
	c-5,6.5-8.1,8.9-17,13.9l10.5,10.8c2.9-3.9,5-6.7,6.5-8.7c6-9.1,11-18.8,15-29l27.3-71h6.8v-6L868.2,241L868.2,241L868.2,241z"/>
<path class="st0" d="M90.9,0c-35.1,0-67,12-91,31.6v106.9c0,26.8,16.1,50.3,40.9,60.1L91.3,219l50.4-20.3c24.9-9.8,41-33.4,41-60.1
	V32.3C158.7,12.3,126.4,0,90.9,0z M176.8,138.5c0,24.3-14.6,45.7-37.2,54.6l-48.3,19.4L43,193.1c-22.6-8.9-37.2-30.3-37.2-54.6V34.7
	C28.6,16.8,58.4,6,91,6c32.9,0,63,11.1,85.8,29.3V138.5z M91,15.5c-27.2,0-53.3,8.3-75.6,24v99.1c0,20.4,12.2,38.3,31.2,45.8
	l44.8,18l44.8-18c19-7.5,31.2-25.4,31.2-45.8V40C144.9,23.9,118.5,15.5,91,15.5z M138,97.9l-8.2,8.2l8.2,8.1v39.2l-16.9,17H44V153
	l7.7-6.7V65.7L44,59V41.8h77l17,16.9V97.9z M82.5,69.1h24.3v23.3H82.5V69.1z M82.5,119.8h24.3V143H82.5V119.8z M126.4,61.4l-9.6-9.5
	H55.1l8.1,7.2V153l-8.1,7.3h61.6l9.7-9.6v-37.3L119,106l7.3-7.3L126.4,61.4L126.4,61.4z M71.1,59.1h47.4v43.4H71.1V59.1z M118.5,153
	H71.1v-43.3h47.4V153z"/>
</svg>
