<?xml version="1.0" encoding="utf-8"?>
<!-- Generator: Adobe Illustrator 27.1.1, SVG Export Plug-In . SVG Version: 6.00 Build 0)  -->
<svg version="1.1" id="Layer_1" xmlns="http://www.w3.org/2000/svg" xmlns:xlink="http://www.w3.org/1999/xlink" x="0px" y="0px"
	 viewBox="0 0 365 69" style="enable-background:new 0 0 365 69;" xml:space="preserve">
<style type="text/css">
	.st0{fill:#0F8AC8;}
	.st1{fill:#1388C4;}
	.st2{fill:#0F87C3;}
	.st3{fill:#0F84BE;}
	.st4{fill:#1080BA;}
	.st5{fill:#0D8ECE;}
	.st6{fill:#FDD402;}
	.st7{fill:#FFFFFF;}
</style>
<g>
	<g>
		<path class="st0" d="M47.5540352,13.7752848l4.5340576-5.9167461l-3.0977211-5.6916299
			c0.1714706,0.0214584,0.3430061,0.0321875,0.503746,0.0535805l3.0977211,5.6702366l-4.5554504,5.9488688h-0.0107269"/>
		<path class="st2" d="M52.0880928,7.8585386l-4.5340576,5.9167461c-0.1607399-0.0214586-0.3215485-0.0429163-0.4930191-0.0643091
			l4.5018044-5.8845592l-3.108387-5.7023592c0.1822014,0.0106637,0.3644028,0.0321221,0.5359383,0.0428512L52.0880928,7.8585386z"/>
		<path class="st3" d="M47.0502892,13.7109756c-0.1608086-0.0214586-0.3108864-0.0429173-0.4716263-0.0643101l4.4482231-5.8202491
			l-3.1405754-5.7560048c0.1929321,0.0214584,0.3859253,0.0321875,0.5681229,0.0536458l3.108387,5.7023592l-4.5018044,5.8845592"/>
		<path class="st4" d="M51.026886,7.8264165l-4.4482231,5.8202491c-0.1608086-0.0214586-0.3322792-0.0429163-0.5038147-0.0536461
			l4.4268303-5.7987905l-3.1405716-5.7666683l0.5252037,0.0428512L51.026886,7.8264165z"/>
		<path class="st5" d="M63.2247772,4.3428373v2.7868371c0,40.9240112-29.6479111,58.9636116-29.9480667,59.1458092
			l-0.4716225,0.2894287l-1.2218838,0.7395935V51.9445801c1.8971653-1.4684601,5.2843113-4.4161034,8.6500034-8.8965149
			c4.2552948-5.7130852,7.1171684-12.2408066,8.5963554-19.2400875c0.1072273-0.4394379,0.1929283-0.8896713,0.2679672-1.3291092
			c0.0107307-0.0429173,0.0214577-0.0964966,0.0321884-0.139349c0-0.0214577,0.0107307-0.0535793,0.0107307-0.0750389
			c0.085701-0.4394379,0.1607399-0.8682117,0.2250481-1.3076496c0.0107307,0,0.0107307-0.0107288,0-0.0107288v-0.0107307
			c0-0.0321865,0.0107307-0.0643082,0.0107307-0.0964966c0.0964966-0.5573273,0.1715355-1.1039925,0.2465096-1.6721153
			c0.0214577-0.0750389,0.0214577-0.1500778,0.0214577-0.2357807c0.0107307-0.0750389,0.0214577-0.1608067,0.0321884-0.2358456
			c0.0643082-0.4930172,0.1178894-0.9753723,0.1607399-1.4791851c0.0107307-0.010664,0.0107307-0.0321236,0-0.0428524
			c0-0.0107288,0-0.0107288,0-0.0214577v-0.0107288c0-0.0428524,0.0107307-0.0857029,0.0107307-0.1286201
			c0-0.0213928,0.0107269-0.0535793,0.0107269-0.0749722c0.0428543-0.557394,0.0857697-1.1147881,0.1178932-1.6721821
			c0.0321846-0.364399,0.0535774-0.7395277,0.0643082-1.1147213c-0.5787849-0.0964317-1.2433395-0.2036581-2.0043945-0.3108187
			l4.5554504-5.9488688l-3.0977211-5.6702366c8.3284569,0.7610517,12.8839035,1.9079607,13.1626015,1.9829996l0.418045,0.107161
			L63.2247772,4.3428373z"/>
		<path class="st6" d="M22.943943,43.0134544c-6.1644974-8.2578659-9.4445505-17.8507919-9.8400908-28.4987106
			c3.2635012-0.5438519,9.3291464-1.3185768,17.7519417-1.3185768c0.2471638,0,0.4944572,0,0.7251339,0.0164862h1.0383739
			c0.1814156,0.0164871,0.3627014,0.0164871,0.5274963,0.0164871h0.5274315
			c0.4781036,0.016551,0.9395218,0.0330372,1.3845863,0.0493927c0.2143211,0,0.4120903,0,0.6263466,0.016552
			c0.2472305,0,0.5110092,0.0164862,0.7581749,0.0329723c0.3131752,0,0.6263466,0.0164862,0.9230347,0.0329733
			c0.1813507,0,0.3791847,0.0164204,0.5604706,0.0164204c0.1153374,0.0164862,0.2142563,0.0164862,0.3296585,0.0164862
			c0.2142563,0.0164862,0.4285774,0.0330381,0.6427689,0.0495243c0.1813507,0,0.3626328,0.0164862,0.5439186,0.0329075
			c1.7801895,0.0988522,3.4119415,0.2472286,4.8954468,0.3956709c0.4944572,0.0493937,0.9559402,0.0988522,1.4174919,0.1482458
			l0.0164871-0.0164862l0.0329056-0.0493937l0.0329742-0.0329723l0.2143211-0.2966881l4.4503174-5.8348379l-3.1811333-5.834969
			l-0.3791847-0.692228c-1.631752-0.148442-3.3624191-0.2802015-5.2249756-0.3791193
			c-0.4450645-0.0329726-0.9065514-0.0494589-1.368103-0.0660105c-0.1647949-0.0164863-0.3295937-0.0328417-0.4944572-0.0328417
			C39.7069664,0.768187,39.5585899,0.768187,39.4267006,0.768187c-0.5109444-0.0329726-1.0384407-0.0494589-1.5493851-0.0659451
			c-0.3625679-0.0164208-0.7087135-0.0329072-1.0712814-0.0329072c-0.6593857-0.0164863-1.3351288-0.033038-2.0274849-0.0495242
			c-1.038311-0.0329072-2.1097221-0.0493935-3.1976223-0.0493935h-0.9559422
			c-18.2628841,0-28.4822254,2.5547862-28.8943176,2.6701903L0.115404,3.652699L0,6.4052553V6.438293
			c0,40.8771667,29.6030312,59.6509933,29.8997192,59.8322754l0.5110092,0.313179l1.1701984,0.7417526v-0.0164871V51.9470596
			C29.685463,50.463623,26.2900066,47.5132294,22.943943,43.0134544z"/>
	</g>
	<g>
		<g>
			<g>
				<path class="st7" d="M87.9786224,57.7143364c0.1423187,5.5718956,1.0713654,7.4291954,2.5001221,7.9288979
					c1.2136765,0.4293442,2.5712738,0.5005035,3.7145996,0.5005035c0.7851334,0,1.2136765,0.1431122,1.2136765,0.5716629
					c0,0.5708618-0.6428146,0.713974-1.6430283,0.713974c-4.6428452,0-7.500351-0.2142715-8.8571472-0.2142715
					c-0.6428146,0-4.0000305,0.2142715-7.7146225,0.2142715c-0.9290543,0-2.4405136-0.3607025-2.4405136-1.0035248
					c0-0.4285431,1.2971878-0.2821121,2.0119629-0.2821121c0.9282532,0,2.2138901-0.0711594,3.2140961-0.3573914
					c1.8572998-0.5716553,2.1427307-2.6432304,2.2146835-8.8571472l0.6428223-42.2885284
					c0-1.4287539,0.2142715-2.4289608,0.9282532-2.4289608c0.7859344,0,1.4287491,0.9290495,2.6432266,2.2146873
					c0.8570938,0.9282494,11.7146606,12.5717468,22.1444778,22.9296055
					c4.8571167,4.8579216,14.5001984,15.1438255,15.7146835,16.2871475h0.3573837l-0.713974-32.0737877
					c-0.0719604-4.3574162-0.7147751-5.7142124-2.4289627-6.4289885c-1.0713654-0.428546-2.7863464-0.428546-3.7857513-0.428546
					c-0.8570938,0-1.1433258-0.2142735-1.1433258-0.6428194c0-0.571661,0.7859344-0.6428185,1.8572998-0.6428185
					c3.7145996,0,7.1429672,0.2142725,8.6436768,0.2142725c0.7851334,0,3.5003204-0.2142725,6.9998474-0.2142725
					c0.9290466,0,1.6430359,0.0711575,1.6430359,0.6428185c0,0.428546-0.4285583,0.6428194-1.2856445,0.6428194
					c-0.713974,0-1.2856445,0-2.1427307,0.2142725c-2.000412,0.5716619-2.5720673,2.0715723-2.6432343,6.0724001
					l-0.7859344,45.0740776c0,1.5710678-0.2854309,2.2138901-0.9282455,2.2138901
					c-0.7859344,0-1.6430283-0.7859344-2.4289627-1.5710678c-4.5005341-4.2862587-13.6439133-13.6439133-21.0723038-21.001152
					c-7.7865906-7.7154274-15.7154846-16.6445312-17.0011215-18.0013275H87.192688L87.9786224,57.7143364z"/>
				<path class="st7" d="M149.6644592,34.1419106c0-10.8575649,0-12.8579788-0.1423187-15.1438236
					c-0.1431122-2.4289589-0.7147827-3.5714827-3.0717773-4.0719862c-0.5716553-0.1423149-1.7861481-0.2142725-2.785553-0.2142725
					c-0.7859344,0-1.2144775-0.1423159-1.2144775-0.6428194c0-0.4997034,0.4997101-0.6428185,1.5710754-0.6428185
					c3.7857513,0,8.2862854,0.2142725,10.2866974,0.2142725c2.9286652,0,7.0718079-0.2142725,10.3578644-0.2142725
					c8.9290924,0,12.1431885,3.0006208,13.2857208,4.0719862c1.5718689,1.4999104,3.5722809,4.7140045,3.5722809,8.5005608
					c0,10.1427879-7.4291992,17.2865524-17.5727844,17.2865524c-0.3573914,0-1.1425171,0-1.4999084-0.0711594
					c-0.3573914-0.0719566-0.8571014-0.143116-0.8571014-0.6436157c0-0.5708618,0.4997101-0.7851372,1.9996185-0.7851372
					c4.000824,0,9.5719299-4.5005302,9.5719299-11.7866116c0-2.3570023-0.2142792-7.1429653-4.2143097-10.7152481
					c-2.5712738-2.3570023-5.499939-2.7855492-7.1429596-2.7855492c-1.0713654,0-2.1435242,0.0711594-2.7863464,0.2854309
					c-0.3565826,0.143116-0.5708618,0.571661-0.5708618,1.3575954v28.5726624c0,6.5721016,0,12.2151566,0.3565826,15.2869377
					c0.2142792,2.000412,0.6428223,3.5714798,2.7863464,3.8569107c1.0002136,0.1431198,2.5712891,0.286232,3.6426544,0.286232
					c0.7859344,0,1.1433105,0.2142715,1.1433105,0.5716629c0,0.4997025-0.5716553,0.713974-1.3575897,0.713974
					c-4.7140045,0-9.2145386-0.2142715-11.0718384-0.2142715c-1.6430206,0-6.1435547,0.2142715-9.0002594,0.2142715
					c-0.9290466,0-1.4287567-0.2142715-1.4287567-0.713974c0-0.3573914,0.2854309-0.5716629,1.1425171-0.5716629
					c1.0713654,0,1.9292603-0.1431122,2.5720825-0.286232c1.4287567-0.2854309,1.7853394-1.8564987,2.0715637-3.9280701
					c0.3565979-3.0006218,0.3565979-8.6436768,0.3565979-15.2157784V34.1419106z"/>
				<path class="st7" d="M189.2154083,66.5722809c-1.1425171-0.4997025-1.3567963-0.8570862-1.3567963-2.4289551
					c0-3.9288712,0.2854309-8.2143326,0.3573914-9.3576546c0.0711517-1.0713654,0.2854309-1.8572998,0.8570862-1.8572998
					c0.6428223,0,0.713974,0.6428185,0.713974,1.2144814c0,0.9290504,0.2862396,2.4289589,0.6428223,3.6434402
					c1.5718689,5.2856674,5.7861786,7.2141266,10.2147522,7.2141266c6.4289856,0,9.5727234-4.3574219,9.5727234-8.143177
					c0-3.5003242-1.0721741-6.786377-7.0006561-11.4292221l-3.2860413-2.5712776
					c-7.8577423-6.1435585-10.5721436-11.1437931-10.5721436-16.9299641c0-7.8577404,6.572113-13.5007954,16.5014191-13.5007954
					c4.6428528,0,7.6426697,0.714776,9.4999695,1.2144794c0.6428223,0.143116,1.0002136,0.3573885,1.0002136,0.8570919
					c0,0.9290495-0.2854309,3.0006218-0.2854309,8.5725193c0,1.5710678-0.2142792,2.1427288-0.7859344,2.1427288
					c-0.4997101,0-0.713974-0.428545-0.713974-1.2856369c0-0.6428204-0.3573914-2.8575077-1.8572998-4.7148056
					c-1.0721741-1.3575954-3.1437378-3.5003252-7.7865906-3.5003252c-5.2856598,0-8.5005646,3.0717783-8.5005646,7.3580389
					c0,3.2852516,1.6430359,5.7853699,7.5723114,10.285902l1.9996185,1.4999084
					c8.6436768,6.500946,11.7154541,11.4292259,11.7154541,18.2156029c0,4.1431427-1.5718689,9.0722237-6.7152252,12.4294281
					c-3.5714722,2.2858505-7.5715027,2.9286652-11.357254,2.9286652
					C195.5020752,68.4295807,192.2871857,67.9290771,189.2154083,66.5722809z"/>
			</g>
			<g>
				<path class="st7" d="M244.3491211,68.18573c-6.7480011,0-11.4971771-4.6516457-11.4971771-11.2357407
					c0-6.6816406,4.6516418-11.2021599,11.4971771-11.2021599c6.8135681,0,11.4644012,4.5205193,11.4644012,11.2021599
					C255.8135223,63.5340843,251.0643463,68.18573,244.3491211,68.18573z M244.3491211,49.318512
					c-4.0943756,0-7.1077881,3.2748604-7.1077881,7.6314774c0,4.3893967,3.0134125,7.6322708,7.1077881,7.6322708
					c4.0615997,0,7.0750122-3.2428741,7.0750122-7.6322708C251.4241333,52.5933723,248.4107208,49.318512,244.3491211,49.318512z"/>
				<path class="st7" d="M277.6022034,67.9562607l-9.2696838-13.9869041l-0.7203979-1.3104248
					c-0.1311035-0.2614441-0.1966858-0.3925667-0.2950134-0.7531548v15.8538055h-3.930481V46.1411972h4.7492065
					l8.7460022,13.6918831c0.6228333,0.9826164,0.8842773,1.670208,1.1465149,2.3577995V46.1411972h3.8977051v21.8150635
					H277.6022034z"/>
				<path class="st7" d="M291.1109924,67.7595825V46.1411972h4.1271667v18.1132584h8.8443604v3.505127H291.1109924z"/>
				<path class="st7" d="M310.4811096,67.7595825V46.1411972h4.1271667v21.6183853H310.4811096z"/>
				<path class="st7" d="M337.8976746,67.9562607l-9.2697144-13.9869041l-0.7203674-1.3104248
					c-0.131134-0.2614441-0.1966858-0.3925667-0.2950134-0.7531548v15.8538055h-3.930481V46.1411972h4.749176l8.7460327,13.6918831
					c0.6228027,0.9826164,0.8842773,1.670208,1.1465149,2.3577995V46.1411972h3.8976746v21.8150635H337.8976746z"/>
				<path class="st7" d="M351.4064636,67.7595825V46.1411972h13.1681824v3.5043221h-9.0410461v5.3392334h7.402832v3.5051231
					h-7.402832v5.7645798H365v3.505127H351.4064636z"/>
			</g>
		</g>
	</g>
</g>
</svg>
