<?xml version="1.0" encoding="utf-8"?>
<!-- Generator: Adobe Illustrator 27.8.1, SVG Export Plug-In . SVG Version: 6.00 Build 0)  -->
<svg version="1.1" id="Layer_1" xmlns="http://www.w3.org/2000/svg" xmlns:xlink="http://www.w3.org/1999/xlink" x="0px" y="0px"
	 viewBox="0 0 438.5 92.9" style="enable-background:new 0 0 438.5 92.9;" xml:space="preserve">
<style type="text/css">
	.st0{fill:#FFFFFF;}
	.st1{fill:none;stroke:#E35205;stroke-width:5.02;stroke-miterlimit:10;}
	.st2{fill:#00205C;}
	.st3{fill:#E65526;}
</style>
<g>
	<path class="st0" d="M152.2,46.1c0-4.6,0.7-8.8,2.1-12.6s3.4-7.1,6.1-9.8s5.7-4.9,9.2-6.4c3.5-1.5,7.4-2.3,11.6-2.3
		c6.8,0,12.6,1.5,17.1,4.6s8,7.2,10.3,12.5l-2.7,1c-1.3-3.1-3.1-5.7-5.4-8c-2.3-2.3-5.1-4-8.3-5.3c-3.2-1.2-6.9-1.9-11-1.9
		c-4.8,0-9.1,1.1-13,3.4c-3.9,2.2-7,5.4-9.3,9.6c-2.3,4.2-3.4,9.2-3.4,15s1.1,10.8,3.4,15c2.3,4.2,5.4,7.4,9.3,9.7
		c3.9,2.2,8.2,3.3,13,3.3c4.2,0.1,7.9-0.6,11.2-1.9c3.3-1.3,6.1-3.2,8.5-5.7c2.4-2.5,4.2-5.3,5.4-8.5l2.8,1
		c-2.3,5.6-5.7,10-10.4,13.3s-10.5,4.8-17.5,4.8c-4.2,0-8-0.8-11.6-2.3s-6.6-3.7-9.2-6.4c-2.6-2.8-4.6-6.1-6.1-9.9
		S152.2,50.7,152.2,46.1L152.2,46.1z"/>
	<path class="st0" d="M234.5,77.2c-4.1,0-7.7-0.9-10.8-2.7s-5.6-4.4-7.5-7.7c-1.8-3.3-2.7-7.3-2.7-12s0.9-8.5,2.7-11.9
		c1.8-3.4,4.3-5.9,7.5-7.7s6.8-2.7,10.8-2.7s7.7,0.9,10.8,2.7c3.1,1.8,5.6,4.4,7.4,7.7c1.8,3.4,2.7,7.3,2.7,11.9s-0.9,8.6-2.7,12
		c-1.8,3.3-4.3,5.9-7.5,7.7S238.5,77.2,234.5,77.2L234.5,77.2z M234.4,74.2c3.1,0,6-0.7,8.7-2.1s4.9-3.5,6.6-6.4
		c1.7-2.9,2.5-6.5,2.5-10.9s-0.8-8.1-2.5-11c-1.7-2.8-3.9-5-6.6-6.3s-5.6-2.1-8.6-2.1s-5.9,0.7-8.6,2.1c-2.7,1.4-4.8,3.5-6.5,6.4
		c-1.7,2.9-2.5,6.5-2.5,10.9s0.8,8.1,2.5,11c1.6,2.8,3.8,5,6.5,6.3S231.4,74.2,234.4,74.2L234.4,74.2z"/>
	<path class="st0" d="M296.4,76.6h-3l-0.2-9.5c-1,3.2-2.8,5.7-5.4,7.4c-2.5,1.8-5.9,2.7-9.9,2.7c-3.2,0-6-0.7-8.6-2
		c-2.5-1.3-4.5-3.4-6-6.2c-1.5-2.8-2.2-6.4-2.2-10.8V33.1h3.1v25c0,5.4,1.2,9.4,3.6,12.1c2.4,2.7,5.8,4.1,10.3,4.1s8.2-1.5,10.9-4.4
		s4-7.5,4-13.8v-23h3.2L296.4,76.6L296.4,76.6z"/>
	<path class="st0" d="M305.5,33.1h3.1l0.1,9.3c0.8-2,2.1-3.8,3.7-5.4c1.7-1.6,3.7-2.8,6-3.5c2.4-0.8,4.9-0.9,7.8-0.3v3.1
		c-2.5-0.5-4.8-0.5-7,0.1c-2.1,0.6-4,1.7-5.6,3.2c-1.6,1.5-2.8,3.4-3.7,5.7c-0.9,2.3-1.4,4.8-1.4,7.5v23.8h-3.2L305.5,33.1
		L305.5,33.1z"/>
	<path class="st0" d="M330.7,64.7c0.4,2.1,1.1,3.8,2.1,5.3c1,1.4,2.4,2.5,4.2,3.2s4,1.1,6.6,1.1c4.2,0,7.3-0.8,9.4-2.5
		s3.1-3.8,3.1-6.4c0-2.2-0.6-3.8-1.8-5c-1.2-1.2-2.8-2.1-4.7-2.7c-1.9-0.6-4-1.2-6-1.7c-1.3-0.3-2.9-0.7-4.6-1.1
		c-1.7-0.4-3.4-1.1-5-1.9c-1.6-0.8-3-1.9-4-3.3c-1.1-1.4-1.6-3.2-1.6-5.4s0.6-4.4,2-6.2c1.3-1.8,3.1-3.2,5.4-4.1
		c2.3-1,4.9-1.4,7.9-1.4c3.5,0,6.7,0.8,9.4,2.3c2.7,1.6,4.6,4.1,5.6,7.7l-2.8,1c-0.6-2.3-1.6-4-3-5.1s-2.9-1.9-4.5-2.3
		c-1.6-0.4-3.2-0.6-4.7-0.6c-3.5,0-6.4,0.8-8.6,2.3c-2.2,1.5-3.3,3.6-3.3,6.3c0,1.6,0.4,2.9,1.2,4s1.8,1.8,3,2.4
		c1.2,0.6,2.6,1.1,4.1,1.4s3.1,0.7,4.6,1c1.7,0.3,3.4,0.8,5.1,1.3s3.4,1.3,4.8,2.2c1.5,0.9,2.7,2.1,3.6,3.5s1.4,3.2,1.4,5.4
		c0,2.4-0.6,4.6-2,6.3c-1.3,1.8-3.1,3.2-5.5,4.1c-2.4,0.9-5.2,1.4-8.4,1.4c-4.3,0-7.8-0.9-10.5-2.8c-2.7-1.9-4.5-4.8-5.3-8.8
		L330.7,64.7L330.7,64.7z"/>
	<path class="st0" d="M383.2,77.2c-4,0-7.5-1-10.5-2.9s-5.4-4.6-7.1-8.1s-2.6-7.4-2.6-11.8s0.9-8.1,2.6-11.4s4.1-5.9,7.1-7.7
		c3-1.9,6.5-2.8,10.4-2.8s7.2,0.8,10.1,2.5c2.9,1.7,5.2,4,7,6.8s2.5,6.2,2.5,9.9c0,0.5,0,1,0,1.7c0,0.7,0,1.3,0,2h-36.4
		c0.1,3.7,0.9,7,2.4,9.8c1.5,2.8,3.4,5,5.9,6.6c2.5,1.6,5.3,2.4,8.5,2.4c3.9,0,7.2-0.9,10-2.6c2.8-1.7,4.9-4.1,6.1-7.3l2.7,1.1
		c-1.5,3.7-3.9,6.6-7.2,8.6S387.7,77.2,383.2,77.2L383.2,77.2z M399.4,52.7c0.1-3.4-0.6-6.3-1.9-8.9c-1.3-2.6-3.2-4.6-5.7-6.1
		s-5.4-2.2-8.7-2.2c-3.1,0-5.8,0.7-8.3,2.2s-4.5,3.5-6,6.1c-1.5,2.6-2.3,5.6-2.4,8.9L399.4,52.7L399.4,52.7z"/>
	<path class="st0" d="M409.2,64.7c0.4,2.1,1.1,3.8,2.1,5.3c1,1.4,2.4,2.5,4.2,3.2s4,1.1,6.6,1.1c4.2,0,7.3-0.8,9.4-2.5
		s3.1-3.8,3.1-6.4c0-2.2-0.6-3.8-1.8-5c-1.2-1.2-2.8-2.1-4.7-2.7c-1.9-0.6-4-1.2-6-1.7c-1.3-0.3-2.9-0.7-4.6-1.1
		c-1.7-0.4-3.4-1.1-5-1.9c-1.6-0.8-3-1.9-4-3.3c-1.1-1.4-1.6-3.2-1.6-5.4s0.6-4.4,2-6.2s3.1-3.2,5.4-4.1c2.3-1,4.9-1.4,7.9-1.4
		c3.5,0,6.7,0.8,9.4,2.3c2.7,1.6,4.6,4.1,5.6,7.7l-2.8,1c-0.6-2.3-1.6-4-3-5.1s-2.9-1.9-4.5-2.3c-1.6-0.4-3.2-0.6-4.7-0.6
		c-3.5,0-6.4,0.8-8.6,2.3c-2.2,1.5-3.3,3.6-3.3,6.3c0,1.6,0.4,2.9,1.2,4s1.8,1.8,3,2.4c1.2,0.6,2.6,1.1,4.1,1.4s3.1,0.7,4.6,1
		c1.7,0.3,3.4,0.8,5.1,1.3s3.4,1.3,4.8,2.2c1.5,0.9,2.7,2.1,3.6,3.5s1.4,3.2,1.4,5.4c0,2.4-0.6,4.6-2,6.3c-1.3,1.8-3.1,3.2-5.5,4.1
		c-2.4,0.9-5.2,1.4-8.4,1.4c-4.3,0-7.8-0.9-10.5-2.8c-2.7-1.9-4.5-4.8-5.3-8.8L409.2,64.7L409.2,64.7z"/>
</g>
<line class="st1" x1="117.4" y1="0.1" x2="117.4" y2="92.9"/>
<g>
	<path class="st2" d="M31.3,36.6c0.5,0.2,3,1.2,6.3,2.5l1-24.9c0-0.1,0.1-0.2,0.2-0.3l4.5-4.4c0.1-0.1,0.2-0.1,0.4-0.1h0.4l0,0
		c0.1,0,0.3,0.1,0.4,0.1c0.1,0.1,0.2,0.2,0.2,0.4v0.9H46V9.8c0-0.1,0.1-0.3,0.2-0.4c0.1-0.1,0.2-0.1,0.4-0.1h0.4
		c0.1,0,0.3,0.1,0.4,0.1l4.5,4.4c0.1,0.1,0.1,0.2,0.2,0.3L53,43.9c0.9,0.4,1.8,0.8,1.9,0.9l0,0c0,0,0.2,0.1,0.4,0
		c0.5-0.4,4.8-3.3,7-4.9l0,0c0.1-0.1,1.2-0.8,2.6-0.2c0.5,0.2,7.8,3.3,13.6,5.8v-30c0-0.8-0.2-1.6-0.5-2.2c-0.1-0.1-0.1-0.2-0.2-0.3
		c-0.1-0.2-0.2-0.4-0.3-0.5c-0.1-0.1-0.2-0.3-0.3-0.4c-0.2-0.2-0.3-0.4-0.5-0.5c-0.3-0.2-0.6-0.5-1-0.7c-0.1-0.1-0.2-0.1-0.3-0.2
		c-0.1,0-0.5-0.2-1.1-0.5C74,10,73.7,9.9,73.3,9.8c-0.2-0.1-0.4-0.1-0.6-0.2c-0.4-0.1-0.8-0.3-1.3-0.4c-0.7-0.2-1.5-0.5-2.3-0.8
		c-0.8-0.2-1.7-0.5-2.6-0.8c-0.4-0.1-0.8-0.2-1.2-0.3c-2.5-0.6-5.3-1.2-8.5-1.7C53.2,5,49.2,4.7,44.9,4.7S36.7,5,33.1,5.6
		c-3.2,0.5-6,1.1-8.5,1.7c-0.4,0.1-0.7,0.2-1,0.3c-3,0.8-5.4,1.7-7,2.2c-0.5,0.2-0.9,0.4-1.3,0.5c-0.4,0.2-0.7,0.3-0.8,0.3
		c-0.4,0.2-0.7,0.4-1,0.6c-0.1,0.1-0.2,0.2-0.3,0.2c-0.3,0.2-0.6,0.5-0.8,0.8c-0.1,0.2-0.3,0.4-0.4,0.6c-0.4,0.8-0.7,1.7-0.7,2.6v33
		l15.8-11.4C27.8,36.6,29.4,35.8,31.3,36.6"/>
	<path class="st3" d="M53.7,61.4c-2.3-0.2-4.7-0.3-7.2-0.3h-0.1c-0.8,0-1.7,0-2.5,0c-2.5,0.1-4.9,0.2-7.3,0.5
		c-8.3,0.9-15.6,2.9-21.1,5.6c0.6,0.2,1.2,0.4,1.8,0.7c1.4,0.5,2.9,1.1,4.7,1.6c0.5,0.1,1,0.2,1.4,0.3c0.1-2.6,3.8-3.5,6.5-3.5
		c2.1,0,4,0.7,6.2,1.6c0.1,0,0.1,0.1,0.2,0.1c1.3,0.5,2.8,1.1,4.5,1.5c0.5,0.1,0.9,0.2,1.4,0.3c0-1.1,0.7-1.8,1.6-2.4
		c0.7-0.4,1.6-0.7,2.5-0.9c0.8-0.2,1.7-0.2,2.5-0.2c1.7,0,3.3,0.5,5,1.1c0.4,0.2,0.8,0.3,1.2,0.4c1.4,0.5,2.9,1.1,4.7,1.6
		c0.5,0.1,0.9,0.2,1.4,0.3c0.1-2.6,3.8-3.5,6.5-3.5c2.1,0,3.9,0.7,6,1.5c0.1-0.1,0.2-0.2,0.2-0.3c0.2-0.2,0.3-0.5,0.5-0.7
		c0.1-0.2,0.3-0.4,0.4-0.7C69.2,63.8,61.8,62,53.7,61.4"/>
	<path class="st2" d="M70.8,68.5c-1.1-0.3-2.1-0.5-3-0.5c-1.7,0-2.5,0.5-3,1l0,0c0.9-0.3,1.5-0.3,1.9,0c0.3,0.2,0.5,0.4,0.6,0.8
		c0.1,0.5,0,1-0.3,1.4c-0.5,0.6-1.3,0.9-2.4,0.9c-0.5,0-0.8,0-1.2-0.1c0,0,0,0,0,0c-3-0.3-5.7-1.3-8.2-2.3c-0.4-0.2-0.8-0.3-1.3-0.5
		c-0.7-0.3-1.4-0.5-2.1-0.7c-1.1-0.3-2.1-0.5-3-0.5c-1.2,0-2,0.3-2.5,0.6v0.3c0.6-0.1,1.1-0.1,1.4,0.1c0.3,0.2,0.5,0.4,0.6,0.8
		c0.1,0.5,0,1-0.3,1.4c-0.4,0.4-1,0.8-1.7,0.9c-0.2,0-0.5,0.1-0.7,0.1c-0.5,0-0.8,0-1.2-0.1c0,0,0,0,0,0c-0.2,0-0.4-0.1-0.6-0.1
		c-2.8-0.3-5.3-1.3-7.6-2.2h0c-1.1-0.4-2.2-0.9-3.3-1.2c-1.1-0.3-2.1-0.5-3-0.5c-1.7,0-2.5,0.5-3,1l0,0c0.9-0.3,1.5-0.3,2,0
		c0.3,0.2,0.5,0.4,0.6,0.8c0.1,0.5,0,1-0.3,1.4c-0.5,0.6-1.3,0.9-2.4,0.9c-0.5,0-0.9,0-1.2-0.1c0,0,0,0,0,0c-3-0.3-5.7-1.3-8.2-2.3
		c0,0-0.1,0-0.1,0c0,0,0,0,0,0.1c0.2,0.2,0.4,0.5,0.6,0.8c0.3,0.4,0.7,0.8,1,1.2c0.1,0.1,0.1,0.1,0.2,0.2c0.1,0.1,0.1,0.1,0.2,0.2
		c0.7,0.7,1.4,1.4,2.1,2.1c0.4,0.3,0.8,0.7,1.1,1c0.3,0.3,0.6,0.5,0.9,0.8c0.8,0.3,1.7,0.6,2.6,0.9c1.4,0.5,2.9,1.1,4.7,1.6
		c0.5,0.1,0.9,0.2,1.4,0.3c0.1-2.6,3.8-3.5,6.5-3.5c2.1,0,4,0.7,6.2,1.6c1.4,0.5,2.9,1.1,4.7,1.6c0.5,0.1,0.9,0.2,1.4,0.3
		c0.1-2.6,3.8-3.5,6.5-3.5c2.1,0,4,0.7,6.2,1.6c0.2,0.1,0.5,0.2,0.7,0.3c0.9-0.7,1.8-1.4,2.6-2.2c1-0.9,2-1.8,2.8-2.7
		c0.5-0.5,0.9-1,1.4-1.5c0.2-0.3,0.5-0.6,0.7-0.9c0.2-0.2,0.4-0.5,0.6-0.7C72.1,69,71.4,68.7,70.8,68.5"/>
	<path class="st2" d="M80.7,45.5v9c0,3.5-0.9,7-2.6,10.5c-0.3,0.6-0.6,1.1-0.9,1.6l-0.1,0.2C77,66.9,77,67,76.9,67.1
		c0,0-0.1,0.1-0.1,0.1c-0.3,0.5-0.6,1-1,1.5c-0.2,0.3-0.4,0.6-0.6,0.8l-0.2,0.2c-0.4,0.5-0.8,1-1.2,1.5l-0.2,0.3
		c-0.2,0.2-0.4,0.4-0.6,0.7c-0.4,0.5-0.9,1-1.4,1.6c-1.8,1.9-3.9,3.8-6.3,5.6c-0.6,0.4-1.1,0.9-1.8,1.3l-0.1,0.1
		c-7.6,5.5-15.2,8.9-15.5,9.1c-1,0.4-2,0.7-3.1,0.7s-2.1-0.2-3.1-0.7c-0.2-0.1-5.9-2.6-12.3-6.9c-1-0.7-2-1.4-3-2l-0.1-0.1l-0.1-0.1
		c-0.6-0.4-1.1-0.8-1.7-1.2c-0.8-0.6-1.5-1.2-2.1-1.7c-1.6-1.4-3.2-2.8-4.6-4.3c0,0-0.1-0.1-0.1-0.1c-0.1-0.1-0.2-0.2-0.3-0.3
		c-0.4-0.4-0.7-0.8-1.1-1.2c-0.5-0.6-0.9-1.1-1.3-1.6c-0.5-0.6-0.9-1.2-1.3-1.8c-0.4-0.6-0.8-1.2-1.1-1.8c0-0.1-0.1-0.2-0.1-0.2
		l0-0.1c-2.2-3.9-3.3-7.8-3.3-11.8v-39c0-2.9,1.7-5.6,4.4-6.8c0.6-0.2,13.9-6.1,31.3-6.1s30.8,5.9,31.3,6.1c2.7,1.2,4.4,3.9,4.4,6.8
		L80.7,45.5L80.7,45.5z M77.1,6.7c-0.6-0.3-14.3-6.3-32.2-6.3S13.3,6.5,12.7,6.7C9.2,8.3,7,11.7,7,15.5v39c0,4.3,1.2,8.6,3.6,12.8
		c0.1,0.1,0.1,0.2,0.2,0.3c0.4,0.7,0.8,1.3,1.2,1.9c0.4,0.7,0.9,1.3,1.4,2c0.4,0.5,0.9,1.1,1.4,1.7c0.4,0.4,0.7,0.8,1.1,1.3
		c0.1,0.1,0.2,0.2,0.4,0.4l0.1,0.1c1.5,1.6,3.1,3.1,4.8,4.5c0.7,0.6,1.4,1.2,2.2,1.8c0.6,0.4,1.1,0.9,1.7,1.3l0.2,0.1l0.1,0
		c1,0.7,2,1.4,3,2.1c6.6,4.3,12.4,6.9,12.6,7c1.2,0.6,2.6,0.8,3.9,0.8s2.7-0.3,4-0.8c0.3-0.1,8.1-3.6,15.9-9.3
		c0.1,0,0.1-0.1,0.2-0.1c0.6-0.4,1.2-0.9,1.8-1.3c2.5-1.9,4.7-3.9,6.6-5.8c0.5-0.5,1-1.1,1.5-1.6c0.2-0.2,0.4-0.5,0.6-0.7l0.2-0.2
		c0.4-0.5,0.9-1.1,1.3-1.6l0.2-0.2c0.2-0.3,0.5-0.6,0.7-0.9c0.3-0.5,0.7-1,1-1.5c0-0.1,0.1-0.1,0.1-0.2c0.1-0.1,0.2-0.3,0.2-0.4
		l0.1-0.1c0.3-0.5,0.6-1.1,0.9-1.7c1.9-3.8,2.8-7.6,2.8-11.4v-39C82.8,11.7,80.6,8.3,77.1,6.7"/>
	<path class="st0" d="M78.5,45.4L78.5,45.4c-5.9-2.5-13.1-5.6-13.6-5.8c-1.4-0.5-2.5,0.2-2.6,0.2l0,0c-2.2,1.5-6.4,4.5-7,4.9
		c-0.2,0.1-0.4,0-0.4,0l0,0c-0.1-0.1-1-0.5-1.9-0.9l-1.2-29.8c0-0.1-0.1-0.2-0.2-0.3l-4.5-4.4c-0.1-0.1-0.2-0.1-0.4-0.1h-0.4l0,0
		c-0.1,0-0.3,0.1-0.4,0.1c-0.1,0.1-0.2,0.2-0.2,0.4v0.9h-1.5V9.8c0-0.1-0.1-0.3-0.2-0.4c-0.1-0.1-0.2-0.1-0.4-0.1h-0.4
		c-0.1,0-0.3,0.1-0.4,0.1l-4.5,4.4c-0.1,0.1-0.1,0.2-0.2,0.3l-1,24.9c-3.2-1.3-5.7-2.3-6.3-2.5c-2-0.7-3.6,0-4.2,0.6L11.2,48.5v-33
		c0-0.9,0.2-1.8,0.7-2.6c0.1-0.2,0.3-0.4,0.4-0.6c0.2-0.3,0.5-0.6,0.8-0.8c0.1-0.1,0.2-0.2,0.3-0.2c0.3-0.2,0.6-0.4,1-0.6
		c0.1-0.1,0.6-0.3,1.6-0.6c0.3-0.1,0.6-0.2,1-0.4c1.4-0.5,3.2-1.1,5.5-1.8c0.6-0.2,1.3-0.4,2-0.5c0.7-0.2,1.5-0.4,2.2-0.5
		c1.9-0.4,4-0.8,6.3-1.2c3.6-0.5,7.6-0.9,11.9-0.9S53.1,5,56.7,5.5c1.8,0.3,3.5,0.6,5.1,0.9c0.8,0.2,1.6,0.3,2.3,0.5
		c0.4,0.1,0.7,0.2,1.1,0.3c0.7,0.2,1.4,0.4,2,0.5c0.7,0.2,1.3,0.4,1.8,0.5c0.9,0.3,1.7,0.5,2.3,0.8c0.5,0.2,0.9,0.3,1.3,0.4
		c0.4,0.1,0.7,0.3,1,0.4c0.9,0.4,1.4,0.6,1.6,0.6c0.2,0.1,0.5,0.2,0.7,0.4c0.1,0.1,0.2,0.1,0.3,0.2c0.2,0.1,0.4,0.3,0.6,0.5
		c0.1,0.1,0.2,0.2,0.3,0.3c0.2,0.2,0.3,0.4,0.5,0.6s0.3,0.4,0.4,0.7c0.1,0.1,0.1,0.2,0.2,0.4c0.1,0.2,0.2,0.5,0.2,0.7
		c0.1,0.4,0.1,0.8,0.1,1.2L78.5,45.4L78.5,45.4z M74.6,66.8c-0.2,0.2-0.3,0.5-0.5,0.7c-0.1,0.1-0.2,0.2-0.2,0.3
		c-2.1-0.8-4-1.5-6-1.5c-2.8,0-6.5,0.9-6.5,3.5c-0.5-0.1-1-0.2-1.4-0.3c-1.8-0.5-3.3-1.1-4.7-1.6c-0.4-0.2-0.8-0.3-1.2-0.5
		c-1.7-0.6-3.3-1.1-5-1.1c-0.8,0-1.7,0.1-2.5,0.2c-0.9,0.2-1.8,0.5-2.5,0.9c-0.9,0.6-1.5,1.3-1.6,2.4c-0.5-0.1-1-0.2-1.4-0.3
		c-1.7-0.5-3.2-1-4.5-1.5c-0.1,0-0.1-0.1-0.2-0.1C34,67,32.1,66.3,30,66.3c-2.8,0-6.5,0.9-6.5,3.5c-0.5-0.1-1-0.2-1.4-0.3
		c-1.8-0.5-3.3-1.1-4.7-1.6c-0.6-0.2-1.2-0.5-1.8-0.7c0,0,0,0,0,0l0,0c0,0,0,0,0,0c0,0,0,0,0,0c5.5-2.7,12.9-4.7,21.1-5.6
		c2.4-0.3,4.8-0.4,7.3-0.5c0.8,0,1.7,0,2.5,0c0,0,0.1,0,0.1,0c2.4,0,4.8,0.1,7.2,0.3c8.1,0.7,15.5,2.4,21.3,4.7
		C74.9,66.3,74.7,66.5,74.6,66.8 M72.2,69.9c-0.2,0.3-0.5,0.6-0.7,0.9c-0.4,0.5-0.9,1-1.4,1.5c-0.9,0.9-1.8,1.8-2.8,2.7
		c-0.8,0.7-1.7,1.4-2.6,2.2c-0.2-0.1-0.5-0.2-0.7-0.3c-2.2-0.8-4.1-1.6-6.2-1.6c-2.8,0-6.5,0.9-6.5,3.5c-0.5-0.1-1-0.2-1.4-0.3
		c-1.8-0.5-3.3-1.1-4.7-1.6c-2.2-0.8-4.1-1.6-6.2-1.6c-2.8,0-6.5,0.9-6.5,3.5c-0.5-0.1-1-0.2-1.4-0.3c-1.8-0.5-3.3-1.1-4.7-1.6
		c-0.9-0.3-1.7-0.7-2.6-0.9c0.1,0.1,0.1,0.1,0,0c-0.3-0.3-0.6-0.5-0.9-0.8c-0.4-0.3-0.8-0.7-1.1-1c-0.7-0.7-1.5-1.4-2.1-2.1
		c-0.1-0.1-0.1-0.1-0.2-0.2c-0.1-0.1-0.1-0.1-0.2-0.2c-0.4-0.4-0.7-0.8-1-1.2c-0.2-0.2-0.4-0.5-0.6-0.8c0,0,0,0,0-0.1
		c0,0,0.1,0,0.1,0c2.5,0.9,5.2,2,8.2,2.3c0,0,0,0,0,0C26,72,26.4,72,26.8,72c1.1,0,1.9-0.3,2.4-0.9c0.3-0.4,0.4-0.9,0.3-1.4
		c-0.1-0.4-0.3-0.7-0.6-0.8c-0.4-0.2-1.1-0.2-2,0l0,0c0.5-0.4,1.4-1,3-1c1,0,2,0.2,3,0.5c1.1,0.3,2.2,0.7,3.3,1.2c0,0,0,0,0,0
		c2.3,0.9,4.8,1.8,7.6,2.2c0.2,0,0.4,0.1,0.6,0.1c0,0,0,0,0,0c0.3,0.1,0.7,0.1,1.2,0.1c0.2,0,0.5,0,0.7-0.1c0.7-0.1,1.3-0.4,1.7-0.9
		c0.3-0.4,0.4-0.9,0.3-1.4c-0.1-0.4-0.3-0.7-0.6-0.8c-0.3-0.2-0.8-0.2-1.4-0.1c-0.2,0-0.3,0.1-0.5,0.1l0,0c0.2-0.1,0.3-0.3,0.5-0.4
		C47,68.2,47.7,68,49,68c1,0,2,0.2,3,0.5c0.7,0.2,1.4,0.4,2.1,0.7c0.4,0.2,0.8,0.3,1.3,0.5c2.5,0.9,5.2,2,8.2,2.3c0,0,0,0,0,0
		c0.3,0.1,0.7,0.1,1.2,0.1c1.1,0,1.9-0.3,2.4-0.9c0.3-0.4,0.4-0.9,0.3-1.4c-0.1-0.4-0.3-0.7-0.6-0.8c-0.4-0.2-1.1-0.2-1.9,0l0,0
		c0.6-0.4,1.3-1,3-1c0.9,0,2,0.2,3,0.5c0.6,0.2,1.3,0.4,1.9,0.7C72.7,69.4,72.5,69.6,72.2,69.9 M76.3,8.6
		c-0.6-0.2-13.9-6.1-31.3-6.1S14.2,8.3,13.6,8.6c-2.7,1.2-4.4,3.9-4.4,6.8v39c0,3.9,1.1,7.9,3.3,11.8l0,0.1c0,0.1,0.1,0.2,0.1,0.2
		c0.4,0.6,0.7,1.2,1.1,1.8c0.4,0.6,0.9,1.2,1.3,1.8c0.4,0.5,0.8,1,1.3,1.6c0.4,0.4,0.7,0.8,1.1,1.2c0.1,0.1,0.2,0.2,0.3,0.3
		c0,0,0.1,0.1,0.1,0.1c1.4,1.5,3,3,4.6,4.3c0.7,0.6,1.4,1.1,2.1,1.7c0.5,0.4,1.1,0.8,1.7,1.2l0.1,0.1l0.1,0.1c0.9,0.7,1.9,1.4,3,2
		c6.5,4.2,12.1,6.8,12.3,6.9c1,0.4,2,0.7,3.1,0.7s2.1-0.2,3.1-0.7c0.3-0.1,7.9-3.5,15.5-9.1l0.1-0.1c0.6-0.5,1.2-0.9,1.8-1.3
		c2.4-1.9,4.5-3.8,6.3-5.6c0.5-0.5,1-1,1.4-1.6c0.2-0.2,0.4-0.4,0.6-0.7l0.2-0.3c0.4-0.5,0.8-1,1.2-1.5l0.2-0.2
		c0.2-0.3,0.4-0.6,0.6-0.8c0.3-0.5,0.6-1,1-1.5c0,0,0-0.1,0.1-0.1c0.1-0.1,0.1-0.2,0.2-0.3l0.1-0.2c0.3-0.5,0.6-1,0.9-1.6
		c1.7-3.5,2.6-7,2.6-10.5v-39C80.7,12.5,78.9,9.9,76.3,8.6"/>
	<path class="st2" d="M60.8,77.5c-1.1-0.3-2.1-0.5-3-0.5c-1.7,0-2.5,0.5-3,1l0,0c0.9-0.3,1.5-0.3,2,0c0.3,0.2,0.5,0.4,0.6,0.8
		c0.1,0.5,0,1-0.3,1.4c-0.5,0.6-1.3,0.9-2.4,0.9c-0.5,0-0.8,0-1.2-0.1c0,0,0,0,0,0c-3-0.3-5.7-1.3-8.2-2.3c-1.2-0.4-2.3-0.9-3.3-1.2
		c-1.1-0.3-2.1-0.5-3-0.5c-1.7,0-2.5,0.5-3,1l0,0c0.9-0.3,1.5-0.3,2,0c0.3,0.2,0.5,0.4,0.6,0.8c0.1,0.5,0,1-0.3,1.4
		c-0.5,0.6-1.3,0.9-2.4,0.9c-0.5,0-0.8,0-1.2-0.1c0,0,0,0,0,0c-2.3-0.2-4.5-0.9-6.5-1.6c0.3,0.2,0.5,0.4,0.8,0.6
		c0.6,0.4,1.2,0.9,1.9,1.3c1.8,1.2,3.5,2.2,5,3.1c0.3,0.2,0.7,0.4,1,0.6c0.7,0.4,1.3,0.7,1.8,1c0.3,0.2,0.6,0.3,0.8,0.4
		s0.5,0.3,0.8,0.4c0.2,0.1,0.5,0.2,0.7,0.3c0.3,0.2,0.6,0.3,0.8,0.4c0.7,0.3,1,0.5,1.1,0.5c0.7,0.3,1.4,0.5,2.2,0.5
		c0.4,0,0.8,0,1.1-0.1c0.4-0.1,0.7-0.2,1.1-0.3c0,0,0.1,0,0.1-0.1c0.1,0,0.1-0.1,0.2-0.1c0,0,0.1-0.1,0.2-0.1c0.1,0,0.2-0.1,0.2-0.1
		c0.2-0.1,0.4-0.2,0.7-0.3c1.5-0.7,4-2,6.9-3.7c1-0.6,2.2-1.3,3.3-2c0.7-0.4,1.4-0.9,2.1-1.4c0.5-0.3,0.9-0.7,1.4-1
		c0,0,0.1-0.1,0.2-0.1c0.3-0.2,0.5-0.4,0.8-0.6C62.3,78.1,61.6,77.8,60.8,77.5"/>
	<path class="st2" d="M78.5,47.9L78.5,47.9c-6.6-2.8-14-6-14.4-6.2c-0.3-0.1-0.5,0-0.6,0c-0.6,0.4-6.3,4.4-7,4.9
		c-1.1,0.7-2.3,0.3-2.5,0.2c0,0-0.5-0.3-1-0.6L53.6,59c8.4,0.6,16.2,2.4,22.5,5c0.4-0.8,0.7-1.6,1-2.4c0.3-0.8,0.6-1.6,0.8-2.4
		c0.1-0.4,0.2-0.8,0.3-1.2c0.2-1.2,0.3-2.4,0.3-3.6L78.5,47.9L78.5,47.9z"/>
	<path class="st2" d="M17.8,63.7c0.2-0.1,0.4-0.2,0.7-0.3c5.3-2,11.6-3.5,18.3-4.2l0.7-17.8c-3.6-1.5-6.5-2.6-7-2.8
		c-1.1-0.4-1.8,0.1-1.8,0.2l-0.1,0.1L11.3,51.3v3.2c0,1.3,0.1,2.7,0.4,4c0.1,0.5,0.2,0.9,0.3,1.3c0.1,0.2,0.1,0.5,0.2,0.7
		c0.1,0.5,0.3,0.9,0.5,1.3s0.4,0.9,0.6,1.3c0.2,0.5,0.4,0.9,0.7,1.3c0.1,0.2,0.2,0.4,0.4,0.7c1-0.5,2.1-1,3.2-1.4
		C17.6,63.8,17.7,63.7,17.8,63.7"/>
	<path class="st2" d="M44.4,58.8c0.7,0,1.3,0,2,0V24.9H50v-2.4h-3.6v-9.9H44v9.9h-3.6v2.4H44v33.9h0C44.1,58.8,44.3,58.8,44.4,58.8"
		/>
</g>
</svg>
